<svg width="333" height="350" viewBox="0 0 333 350" fill="none" xmlns="http://www.w3.org/2000/svg">
<path d="M253.124 165.111C253.124 165.111 243.076 124.109 182.248 98.2502C121.419 72.3916 66.9994 96.3412 54.5931 126.642C42.1868 156.942 55.1887 173.305 46.9099 199.181C38.6311 225.058 -3.90054 257.831 13.2646 297.574C30.4297 337.316 110.752 348.666 175.75 340.467C240.747 332.268 291.528 241.433 253.124 165.111Z" fill="#4D73F2"/>
<path d="M217.585 310.445L227.465 310.34" stroke="#263238" stroke-linecap="round" stroke-linejoin="round"/>
<path d="M31.282 312.421L214.292 310.48" stroke="#263238" stroke-linecap="round" stroke-linejoin="round"/>
<path d="M18.4149 312.557L25.166 312.486" stroke="#263238" stroke-linecap="round" stroke-linejoin="round"/>
<path d="M150.07 217.507H139.894V310.467H150.07V217.507Z" fill="#263238" stroke="#2F2E41" stroke-linecap="round" stroke-linejoin="round"/>
<path d="M69.3775 251.17V257.708H109.937V251.17H69.3775Z" fill="#263238" stroke="#2F2E41" stroke-linecap="round" stroke-linejoin="round"/>
<path d="M73.5467 228.602H67.3262V254.761H73.5467V228.602Z" fill="#263238" stroke="#2F2E41" stroke-linecap="round" stroke-linejoin="round"/>
<path d="M76.1374 254.873C76.1374 255.659 75.9899 256.438 75.7033 257.165C75.4167 257.891 74.9967 258.551 74.4672 259.107C73.9378 259.663 73.3092 260.104 72.6176 260.404C71.926 260.705 71.1848 260.859 70.4365 260.858C70.25 260.858 70.0635 260.858 69.8837 260.858C68.8464 260.75 67.857 260.345 67.0232 259.688C66.1894 259.03 65.5431 258.145 65.1546 257.129C64.766 256.112 64.65 255.003 64.8193 253.922C64.9886 252.841 65.4366 251.829 66.1147 250.997C66.7927 250.165 67.6749 249.544 68.6651 249.202C69.6554 248.86 70.716 248.81 71.7314 249.057C72.7469 249.305 73.6784 249.84 74.4247 250.605C75.171 251.37 75.7035 252.335 75.9643 253.396C76.078 253.879 76.1361 254.375 76.1374 254.873V254.873Z" fill="white" stroke="#2F2E41" stroke-linecap="round" stroke-linejoin="round"/>
<path d="M76.557 232.634C76.5535 234.221 75.9515 235.742 74.8829 236.864C73.8144 237.986 72.3663 238.617 70.856 238.619C70.6696 238.619 70.4831 238.619 70.2966 238.619C69.2588 238.514 68.2681 238.113 67.4323 237.457C66.5966 236.802 65.9478 235.919 65.5564 234.903C65.1651 233.888 65.0463 232.779 65.2128 231.697C65.3794 230.615 65.825 229.602 66.5012 228.768C67.1774 227.934 68.0582 227.311 69.0479 226.966C70.0376 226.621 71.0982 226.569 72.1144 226.814C73.1307 227.058 74.0635 227.592 74.8116 228.355C75.5596 229.118 76.0942 230.082 76.3572 231.143C76.4851 231.629 76.5523 232.13 76.557 232.634Z" fill="white" stroke="#2F2E41" stroke-linecap="round" stroke-linejoin="round"/>
<path d="M86.7647 216.393L78.473 221.086L80.1907 224.439L88.4823 219.746L86.7647 216.393Z" fill="#263238" stroke="#2F2E41" stroke-linecap="round" stroke-linejoin="round"/>
<path d="M89.857 220.111L85.7744 222.421L83.1637 217.332L87.2529 215.015C87.5738 214.83 87.9266 214.714 88.2906 214.675C88.6546 214.635 89.0224 214.673 89.3724 214.785C89.7224 214.897 90.0475 215.082 90.3286 215.328C90.6097 215.574 90.8411 215.877 91.0092 216.219V216.219C91.3434 216.896 91.4098 217.685 91.1941 218.414C90.9784 219.142 90.4979 219.752 89.857 220.111V220.111Z" fill="white" stroke="#2F2E41" stroke-linecap="round" stroke-linejoin="round"/>
<path d="M71.9616 198.53L71.6685 216.282L68.0522 216.219L68.3385 198.467L71.9616 198.53Z" fill="#263238" stroke="#2F2E41" stroke-linecap="round" stroke-linejoin="round"/>
<path d="M72.9406 197.459L72.8673 202.359L67.3662 202.219L67.4394 197.319C67.4455 196.939 67.5227 196.564 67.6666 196.216C67.8104 195.868 68.0182 195.553 68.2779 195.289C68.5377 195.025 68.8443 194.817 69.1804 194.678C69.5165 194.539 69.8754 194.47 70.2366 194.477V194.477C70.6016 194.482 70.9618 194.564 71.2963 194.717C71.6308 194.871 71.9328 195.093 72.1846 195.371C72.4364 195.648 72.6329 195.976 72.7628 196.335C72.8926 196.693 72.953 197.075 72.9406 197.459V197.459Z" fill="white" stroke="#2F2E41" stroke-linecap="round" stroke-linejoin="round"/>
<path d="M85.4947 204.97L77.5493 220.636L74.3525 218.851L82.2912 203.185L85.4947 204.97Z" fill="#263238" stroke="#2F2E41" stroke-linecap="round" stroke-linejoin="round"/>
<path d="M86.8267 204.487L84.6489 208.792L79.7937 206.083L81.9649 201.771C82.3084 201.096 82.892 200.591 83.5882 200.367C84.2845 200.143 85.0369 200.217 85.6812 200.574V200.574C86.3262 200.934 86.8091 201.548 87.0238 202.281C87.2386 203.015 87.1677 203.808 86.8267 204.487V204.487Z" fill="white" stroke="#2F2E41" stroke-linecap="round" stroke-linejoin="round"/>
<path d="M59.1211 204.9L66.9932 220.608L63.7898 222.386L55.9176 206.678L59.1211 204.9Z" fill="#263238" stroke="#2F2E41" stroke-linecap="round" stroke-linejoin="round"/>
<path d="M66.5071 216.289C66.3903 215.562 66.0711 214.888 65.5899 214.353C65.1087 213.817 64.487 213.443 63.8036 213.279C63.1202 213.114 62.4058 213.167 61.7508 213.429C61.0958 213.692 60.5296 214.153 60.1239 214.754C59.7182 215.355 59.4912 216.069 59.4717 216.805C59.4521 217.542 59.6409 218.268 60.0141 218.892C60.3873 219.515 60.9282 220.009 61.5683 220.309C62.2084 220.61 62.9189 220.704 63.6099 220.58C64.5351 220.414 65.3598 219.869 65.9029 219.064C66.4461 218.26 66.6633 217.261 66.5071 216.289V216.289Z" fill="white" stroke="#2F2E41" stroke-linecap="round" stroke-linejoin="round"/>
<path d="M69.9702 216.779C71.9271 216.779 73.5134 215.111 73.5134 213.055C73.5134 210.998 71.9271 209.331 69.9702 209.331C68.0134 209.331 66.4271 210.998 66.4271 213.055C66.4271 215.111 68.0134 216.779 69.9702 216.779Z" fill="white" stroke="#2F2E41" stroke-linecap="round" stroke-linejoin="round"/>
<path d="M81.532 215.204C81.6386 214.475 81.5373 213.73 81.241 213.063C80.9446 212.395 80.4665 211.835 79.8671 211.453C79.2677 211.071 78.5739 210.884 77.8737 210.917C77.1734 210.949 76.498 211.2 75.933 211.636C75.368 212.072 74.9388 212.674 74.6996 213.367C74.4604 214.059 74.4221 214.811 74.5894 215.526C74.7567 216.242 75.1222 216.889 75.6396 217.386C76.157 217.883 76.8031 218.208 77.496 218.319C77.9557 218.393 78.4249 218.372 78.8766 218.256C79.3284 218.139 79.7539 217.931 80.1288 217.641C80.5037 217.352 80.8207 216.988 81.0614 216.569C81.3022 216.151 81.4621 215.687 81.532 215.204V215.204Z" fill="white" stroke="#2F2E41" stroke-linecap="round" stroke-linejoin="round"/>
<path d="M59.4874 203.465L61.6586 207.777L56.7968 210.486L54.6256 206.167C54.456 205.831 54.3511 205.464 54.3169 205.086C54.2827 204.708 54.3199 204.327 54.4264 203.964C54.5328 203.601 54.7064 203.263 54.9372 202.971C55.1679 202.679 55.4513 202.438 55.7711 202.261V202.261C56.4162 201.905 57.1692 201.831 57.8656 202.057C58.562 202.282 59.145 202.789 59.4874 203.465V203.465Z" fill="white" stroke="#2F2E41" stroke-linecap="round" stroke-linejoin="round"/>
<path d="M80.8527 223.478C80.8527 226.263 79.8002 228.933 77.9267 230.902C76.0532 232.872 73.5122 233.978 70.8627 233.978C70.5297 233.978 70.1967 233.978 69.8837 233.936C68.0664 233.746 66.3333 233.037 64.8727 231.885C63.4121 230.733 62.2799 229.182 61.5992 227.401C60.9185 225.62 60.7152 223.677 61.0116 221.783C61.308 219.889 62.0926 218.117 63.2802 216.659C64.4678 215.2 66.0129 214.112 67.7476 213.513C69.4823 212.913 71.3403 212.824 73.1195 213.257C74.8987 213.689 76.5312 214.626 77.8394 215.965C79.1476 217.304 80.0815 218.995 80.5397 220.853C80.7462 221.711 80.8513 222.593 80.8527 223.478V223.478Z" fill="white" stroke="#2F2E41" stroke-linecap="round" stroke-linejoin="round"/>
<path d="M80.8527 223.478C80.8527 226.263 79.8002 228.933 77.9267 230.902C76.0532 232.872 73.5122 233.978 70.8627 233.978C70.5297 233.978 70.1967 233.978 69.8837 233.936C69.5009 232.382 69.4621 230.757 69.7702 229.185C70.0782 227.613 70.725 226.137 71.6607 224.869C72.5965 223.601 73.7963 222.575 75.1681 221.87C76.5399 221.165 78.0471 220.801 79.574 220.804C79.9003 220.804 80.24 220.804 80.553 220.853C80.7551 221.711 80.8557 222.593 80.8527 223.478V223.478Z" fill="white" stroke="#2F2E41" stroke-linecap="round" stroke-linejoin="round"/>
<path d="M131.156 255.062C132.852 247.443 128.351 239.821 121.102 238.039C113.853 236.256 106.602 240.987 104.906 248.606C103.209 256.225 107.711 263.846 114.96 265.629C122.208 267.412 129.46 262.681 131.156 255.062Z" fill="white" stroke="#2F2E41" stroke-linecap="round" stroke-linejoin="round"/>
<path d="M120.535 258.17C123.866 256.71 125.439 252.689 124.05 249.188C122.661 245.688 118.836 244.034 115.505 245.494C112.175 246.954 110.601 250.975 111.99 254.475C113.379 257.975 117.205 259.629 120.535 258.17Z" fill="#263238" stroke="#2F2E41" stroke-linecap="round" stroke-linejoin="round"/>
<path d="M115.711 311.776H175.518L176.377 307.52C176.722 305.82 176.412 304.045 175.516 302.584C174.62 301.123 173.211 300.094 171.595 299.722C163.117 297.72 144.762 296.999 144.762 296.999C140.34 297.146 128.032 297.699 119.554 299.729C117.95 300.114 116.554 301.147 115.669 302.605C114.784 304.063 114.481 305.829 114.825 307.52L115.711 311.776Z" fill="white" stroke="#2F2E41" stroke-linecap="round" stroke-linejoin="round"/>
<path d="M160.007 298.035C152.348 297.293 144.782 296.999 144.782 296.999C141.998 297.09 136.084 297.349 129.97 298.035C131.755 304.44 137.802 309.158 144.988 309.158C152.175 309.158 158.222 304.419 160.007 298.035Z" fill="#3F3D56" stroke="#2F2E41" stroke-linecap="round" stroke-linejoin="round"/>
<path d="M207.455 281.76L211.175 276.521L178.668 251.026L174.948 256.266L207.455 281.76Z" fill="#263238" stroke="#2F2E41" stroke-linecap="round" stroke-linejoin="round"/>
<path d="M191.278 297.229L196.263 301.139L211.148 280.174L206.162 276.264L191.278 297.229Z" fill="#263238" stroke="#2F2E41" stroke-linecap="round" stroke-linejoin="round"/>
<path d="M204.143 274.543C204.591 273.911 205.154 273.378 205.798 272.975C206.442 272.572 207.156 272.306 207.898 272.193C208.641 272.08 209.397 272.122 210.124 272.316C210.851 272.51 211.534 272.853 212.135 273.325L212.568 273.696C213.338 274.434 213.901 275.38 214.195 276.432C214.489 277.483 214.503 278.599 214.236 279.658C213.969 280.717 213.431 281.679 212.68 282.439C211.929 283.199 210.994 283.728 209.977 283.969C208.96 284.209 207.899 284.152 206.911 283.803C205.923 283.454 205.044 282.827 204.371 281.991C203.699 281.154 203.257 280.139 203.094 279.057C202.932 277.974 203.055 276.866 203.45 275.852C203.629 275.387 203.861 274.947 204.143 274.543V274.543Z" fill="white" stroke="#2F2E41" stroke-linecap="round" stroke-linejoin="round"/>
<path d="M191.136 291.294C191.98 289.976 193.288 289.064 194.772 288.76C196.255 288.455 197.794 288.782 199.048 289.67C199.201 289.775 199.347 289.894 199.494 290.013C200.298 290.71 200.905 291.626 201.248 292.661C201.591 293.696 201.658 294.81 201.441 295.881C201.224 296.953 200.731 297.942 200.017 298.74C199.302 299.538 198.393 300.115 197.389 300.408C196.384 300.701 195.322 300.698 194.319 300.401C193.315 300.104 192.408 299.523 191.697 298.722C190.986 297.921 190.497 296.93 190.284 295.857C190.071 294.785 190.142 293.671 190.49 292.638C190.651 292.163 190.868 291.712 191.136 291.294V291.294Z" fill="white" stroke="#2F2E41" stroke-linecap="round" stroke-linejoin="round"/>
<path d="M174.017 298.793L183.389 299.76L183.743 295.971L174.371 295.003L174.017 298.793Z" fill="#263238" stroke="#2F2E41" stroke-linecap="round" stroke-linejoin="round"/>
<path d="M173.447 293.919L178.069 294.395L177.529 300.149L172.907 299.673C172.181 299.598 171.513 299.224 171.05 298.632C170.586 298.04 170.366 297.279 170.436 296.516V296.516C170.509 295.752 170.866 295.05 171.431 294.563C171.995 294.076 172.72 293.845 173.447 293.919V293.919Z" fill="white" stroke="#2F2E41" stroke-linecap="round" stroke-linejoin="round"/>
<path d="M182.704 296.369C183.436 295.222 184.376 294.239 185.47 293.474C186.564 292.71 187.791 292.18 189.08 291.915C190.369 291.65 191.696 291.654 192.983 291.928C194.271 292.203 195.494 292.741 196.584 293.513C196.857 293.709 197.116 293.912 197.369 294.129C198.777 295.352 199.84 296.957 200.44 298.77C201.041 300.583 201.157 302.535 200.776 304.413C200.395 306.29 199.531 308.022 198.279 309.42C197.027 310.818 195.435 311.828 193.674 312.341C191.914 312.854 190.054 312.85 188.296 312.329C186.537 311.808 184.949 310.791 183.702 309.387C182.456 307.984 181.6 306.248 181.226 304.368C180.853 302.489 180.977 300.538 181.585 298.728C181.861 297.895 182.237 297.102 182.704 296.369Z" fill="white" stroke="#2F2E41" stroke-linecap="round" stroke-linejoin="round"/>
<path d="M171.941 307.275L184.329 297.538L186.32 300.331L173.933 310.061L171.941 307.275Z" fill="#263238" stroke="#2F2E41" stroke-linecap="round" stroke-linejoin="round"/>
<path d="M170.656 307.128L174.059 304.419L177.083 308.619L173.68 311.3C173.145 311.72 172.474 311.9 171.813 311.8C171.153 311.701 170.557 311.329 170.157 310.768V310.768C169.773 310.212 169.611 309.521 169.704 308.841C169.797 308.162 170.139 307.547 170.656 307.128V307.128Z" fill="white" stroke="#2F2E41" stroke-linecap="round" stroke-linejoin="round"/>
<path d="M187.939 300.541C188.096 299.822 188.047 299.07 187.797 298.381C187.547 297.691 187.109 297.095 186.536 296.668C185.964 296.242 185.284 296.003 184.582 295.983C183.88 295.963 183.189 296.162 182.595 296.556C182.002 296.95 181.533 297.52 181.248 298.194C180.963 298.868 180.875 299.616 180.995 300.343C181.115 301.07 181.438 301.743 181.922 302.276C182.407 302.81 183.031 303.181 183.716 303.341C184.629 303.554 185.586 303.38 186.377 302.855C187.168 302.331 187.729 301.499 187.939 300.541Z" fill="white" stroke="#2F2E41" stroke-linecap="round" stroke-linejoin="round"/>
<path d="M194.506 317.061L196.344 303.705L199.068 304.111L197.236 317.467L194.506 317.061Z" fill="#263238" stroke="#2F2E41" stroke-linecap="round" stroke-linejoin="round"/>
<path d="M193.673 317.768L194.173 314.093L198.308 314.716L197.809 318.384C197.771 318.67 197.679 318.945 197.539 319.194C197.4 319.442 197.215 319.66 196.995 319.833C196.776 320.007 196.526 320.133 196.26 320.205C195.994 320.277 195.717 320.293 195.445 320.253V320.253C194.896 320.17 194.402 319.861 194.07 319.395C193.738 318.929 193.595 318.344 193.673 317.768V317.768Z" fill="white" stroke="#2F2E41" stroke-linecap="round" stroke-linejoin="round"/>
<path d="M200.133 303.236C199.82 302.722 199.368 302.318 198.836 302.074C198.304 301.83 197.715 301.757 197.144 301.864C196.572 301.972 196.044 302.255 195.626 302.678C195.207 303.101 194.917 303.645 194.793 304.241C194.668 304.837 194.715 305.458 194.926 306.026C195.137 306.595 195.504 307.085 195.98 307.434C196.456 307.783 197.02 307.977 197.6 307.989C198.18 308.002 198.751 307.834 199.241 307.506C199.897 307.063 200.36 306.365 200.527 305.565C200.695 304.764 200.553 303.927 200.133 303.236V303.236Z" fill="white" stroke="#2F2E41" stroke-linecap="round" stroke-linejoin="round"/>
<path d="M182.245 315.283L190.503 301.535L193.307 303.383L185.055 317.138L182.245 315.283Z" fill="#263238" stroke="#2F2E41" stroke-linecap="round" stroke-linejoin="round"/>
<path d="M180.999 315.619L183.257 311.839L187.526 314.639L185.261 318.426C184.905 319.018 184.34 319.438 183.69 319.594C183.04 319.751 182.357 319.63 181.792 319.259V319.259C181.228 318.885 180.829 318.293 180.68 317.611C180.532 316.929 180.646 316.212 180.999 315.619V315.619Z" fill="white" stroke="#2F2E41" stroke-linecap="round" stroke-linejoin="round"/>
<path d="M194.905 302.977C194.806 302.248 194.504 301.566 194.036 301.018C193.568 300.47 192.956 300.081 192.277 299.899C191.598 299.717 190.883 299.751 190.223 299.997C189.563 300.243 188.987 300.69 188.568 301.28C188.15 301.871 187.907 302.578 187.872 303.314C187.837 304.049 188.01 304.779 188.37 305.411C188.73 306.042 189.26 306.547 189.894 306.862C190.527 307.176 191.235 307.286 191.928 307.177C192.852 307.033 193.684 306.51 194.242 305.723C194.8 304.936 195.039 303.948 194.905 302.977V302.977Z" fill="white" stroke="#2F2E41" stroke-linecap="round" stroke-linejoin="round"/>
<path d="M179.606 263.993C185.866 259.758 187.674 250.991 183.644 244.411C179.615 237.832 171.273 235.931 165.014 240.167C158.754 244.402 156.946 253.169 160.975 259.749C165.005 266.328 173.346 268.228 179.606 263.993Z" fill="white" stroke="#2F2E41" stroke-linecap="round" stroke-linejoin="round"/>
<path d="M178.254 254.948C179.758 251.501 178.319 247.424 175.039 245.843C171.759 244.262 167.881 245.775 166.377 249.222C164.872 252.669 166.312 256.746 169.591 258.327C172.871 259.908 176.749 258.395 178.254 254.948Z" fill="#263238" stroke="#2F2E41" stroke-linecap="round" stroke-linejoin="round"/>
<path d="M144.982 224.003C156.94 224.003 166.633 213.814 166.633 201.246C166.633 188.677 156.94 178.489 144.982 178.489C133.024 178.489 123.33 188.677 123.33 201.246C123.33 213.814 133.024 224.003 144.982 224.003Z" fill="#3F3D56" stroke="#2F2E41" stroke-linecap="round" stroke-linejoin="round"/>
<path d="M175.938 216.401C180.587 210.273 183.497 202.891 184.333 195.103C185.168 187.314 183.895 179.436 180.66 172.375C177.425 165.313 172.359 159.355 166.045 155.184C159.731 151.014 152.426 148.802 144.969 148.802C137.512 148.802 130.206 151.014 123.892 155.184C117.578 159.355 112.512 165.313 109.277 172.375C106.042 179.436 104.769 187.314 105.604 195.103C106.44 202.891 109.35 210.273 114 216.401H175.938Z" fill="white" stroke="#2F2E41" stroke-linecap="round" stroke-linejoin="round"/>
<path d="M169.211 174.723H119.754C116.745 174.723 114.306 177.286 114.306 180.449V198.873C114.306 202.035 116.745 204.599 119.754 204.599H169.211C172.22 204.599 174.659 202.035 174.659 198.873V180.449C174.659 177.286 172.22 174.723 169.211 174.723Z" fill="#3F3D56" stroke="#2F2E41" stroke-linecap="round" stroke-linejoin="round"/>
<path d="M120.833 188.45C121.487 186.525 122.679 184.853 124.253 183.652C125.827 182.452 127.709 181.779 129.653 181.722C131.597 181.665 133.512 182.227 135.146 183.334C136.781 184.441 138.06 186.041 138.815 187.925" stroke="#2F2E41" stroke-width="5" stroke-linecap="round" stroke-linejoin="round"/>
<path d="M150.663 188.45C151.317 186.525 152.509 184.853 154.083 183.652C155.657 182.452 157.539 181.779 159.483 181.722C161.427 181.665 163.342 182.227 164.977 183.334C166.611 184.441 167.89 186.041 168.645 187.925" stroke="#2F2E41" stroke-width="5" stroke-linecap="round" stroke-linejoin="round"/>
<path d="M139.76 195.373C139.928 196.761 140.571 198.037 141.57 198.962C142.568 199.888 143.854 200.398 145.185 200.398C146.516 200.398 147.802 199.888 148.8 198.962C149.799 198.037 150.442 196.761 150.61 195.373H139.76Z" fill="white" stroke="#2F2E41" stroke-linecap="round" stroke-linejoin="round"/>
<path d="M196.237 197.739C195.139 197.739 194.085 197.28 193.308 196.464C192.531 195.647 192.095 194.54 192.095 193.385V183.48C192.094 182.907 192.2 182.34 192.408 181.811C192.616 181.282 192.921 180.802 193.306 180.397C193.69 179.991 194.147 179.67 194.65 179.451C195.153 179.232 195.693 179.119 196.237 179.119C196.782 179.118 197.321 179.23 197.825 179.448C198.328 179.667 198.785 179.987 199.171 180.392C199.556 180.796 199.862 181.276 200.07 181.805C200.279 182.334 200.386 182.9 200.386 183.473V193.378C200.387 193.951 200.281 194.518 200.072 195.048C199.864 195.577 199.559 196.058 199.173 196.464C198.788 196.869 198.33 197.19 197.826 197.409C197.322 197.628 196.782 197.74 196.237 197.739Z" fill="#263238" stroke="#2F2E41" stroke-linecap="round" stroke-linejoin="round"/>
<path d="M92.5943 197.739C92.0497 197.74 91.5103 197.628 91.0069 197.409C90.5036 197.191 90.0461 196.87 89.6608 196.466C89.2754 196.062 88.9697 195.581 88.7611 195.053C88.5525 194.524 88.4451 193.957 88.4451 193.385V183.48C88.4442 182.907 88.5509 182.339 88.7591 181.81C88.9673 181.28 89.2729 180.799 89.6584 180.394C90.0439 179.989 90.5016 179.668 91.0054 179.449C91.5092 179.23 92.0491 179.118 92.5943 179.119V179.119C93.1383 179.119 93.6769 179.231 94.1795 179.45C94.6821 179.669 95.1388 179.99 95.5235 180.394C95.9081 180.798 96.2133 181.278 96.4215 181.807C96.6296 182.335 96.7368 182.901 96.7368 183.473V193.378C96.7377 193.95 96.6312 194.517 96.4234 195.046C96.2156 195.575 95.9106 196.056 95.5258 196.461C95.1411 196.866 94.6841 197.187 94.1811 197.407C93.678 197.626 93.1388 197.739 92.5943 197.739V197.739Z" fill="#263238" stroke="#2F2E41" stroke-linecap="round" stroke-linejoin="round"/>
<path d="M105.874 153.044C102.21 158.734 100.256 165.45 100.267 172.322V179.518" stroke="#2F2E41" stroke-width="14" stroke-linecap="round" stroke-linejoin="round"/>
<path d="M184.516 153.072C181.517 148.376 177.465 144.528 172.717 141.868C167.968 139.208 162.67 137.817 157.289 137.819H133.08C127.707 137.815 122.416 139.199 117.671 141.851C112.927 144.502 108.876 148.339 105.874 153.023" stroke="#2F2E41" stroke-width="7" stroke-linecap="round" stroke-linejoin="round"/>
<path d="M190.097 179.518V172.322C190.107 165.463 188.163 158.759 184.516 153.072" stroke="#2F2E41" stroke-width="14" stroke-linecap="round" stroke-linejoin="round"/>
<path d="M103.57 171.769H98.0155C94.8007 171.769 92.1947 174.508 92.1947 177.887V198.11C92.1947 201.489 94.8007 204.228 98.0155 204.228H103.57C106.785 204.228 109.391 201.489 109.391 198.11V177.887C109.391 174.508 106.785 171.769 103.57 171.769Z" fill="white" stroke="#2F2E41" stroke-linecap="round" stroke-linejoin="round"/>
<path d="M101.672 171.769H99.9203V204.228H101.672V171.769Z" fill="#3F3D56" stroke="#2F2E41" stroke-linecap="round" stroke-linejoin="round"/>
<path d="M191.295 171.769H185.741C182.526 171.769 179.92 174.508 179.92 177.887V198.11C179.92 201.489 182.526 204.228 185.741 204.228H191.295C194.51 204.228 197.116 201.489 197.116 198.11V177.887C197.116 174.508 194.51 171.769 191.295 171.769Z" fill="white" stroke="#2F2E41" stroke-linecap="round" stroke-linejoin="round"/>
<path d="M189.397 171.769H187.646V204.228H189.397V171.769Z" fill="#3F3D56" stroke="#2F2E41" stroke-linecap="round" stroke-linejoin="round"/>
<path d="M145.122 168.822C148.156 168.823 151.141 168.025 153.807 166.501C156.472 164.978 158.732 162.777 160.38 160.1L164.136 153.989C158.184 150.534 151.485 148.748 144.686 148.803C137.887 148.858 131.216 150.753 125.315 154.304L130.969 161.682C132.67 163.908 134.825 165.706 137.274 166.941C139.723 168.177 142.405 168.819 145.122 168.822V168.822Z" fill="#3F3D56" stroke="#2F2E41" stroke-linecap="round" stroke-linejoin="round"/>
<path d="M146.061 207.623C146.061 207.484 146.022 207.349 145.949 207.234C145.875 207.119 145.771 207.029 145.65 206.976C145.528 206.923 145.394 206.909 145.265 206.936C145.136 206.963 145.017 207.03 144.924 207.128C144.831 207.226 144.767 207.35 144.742 207.486C144.716 207.622 144.729 207.763 144.779 207.891C144.83 208.019 144.915 208.128 145.025 208.205C145.134 208.282 145.263 208.323 145.395 208.323C145.571 208.323 145.741 208.249 145.866 208.118C145.991 207.986 146.061 207.808 146.061 207.623Z" fill="#263238"/>
<path d="M146.061 209.975C146.061 209.836 146.022 209.701 145.949 209.586C145.875 209.471 145.771 209.381 145.65 209.328C145.528 209.275 145.394 209.261 145.265 209.288C145.136 209.315 145.017 209.382 144.924 209.48C144.831 209.578 144.767 209.702 144.742 209.838C144.716 209.974 144.729 210.115 144.779 210.243C144.83 210.37 144.915 210.48 145.025 210.557C145.134 210.634 145.263 210.675 145.395 210.675C145.571 210.675 145.741 210.601 145.866 210.47C145.991 210.338 146.061 210.16 146.061 209.975Z" fill="#263238"/>
<path d="M143.523 209.611C143.645 209.528 143.738 209.406 143.787 209.263C143.837 209.12 143.841 208.964 143.799 208.819C143.757 208.673 143.671 208.546 143.554 208.457C143.437 208.367 143.295 208.32 143.15 208.323C143.029 208.405 142.936 208.527 142.886 208.67C142.836 208.813 142.832 208.969 142.874 209.115C142.917 209.26 143.003 209.387 143.12 209.477C143.237 209.566 143.379 209.613 143.523 209.611Z" fill="#263238"/>
<path d="M147.526 209.611C147.629 209.609 147.73 209.582 147.822 209.532C147.913 209.482 147.992 209.41 148.053 209.323C148.113 209.235 148.154 209.134 148.171 209.027C148.188 208.92 148.181 208.811 148.151 208.707C148.121 208.603 148.069 208.508 147.998 208.43C147.927 208.351 147.84 208.291 147.743 208.254C147.646 208.216 147.543 208.203 147.44 208.215C147.338 208.227 147.24 208.264 147.153 208.323C147.05 208.325 146.949 208.352 146.857 208.402C146.766 208.452 146.687 208.523 146.626 208.611C146.566 208.698 146.525 208.8 146.508 208.906C146.491 209.013 146.498 209.123 146.528 209.226C146.558 209.33 146.61 209.425 146.681 209.504C146.752 209.582 146.839 209.643 146.936 209.68C147.032 209.717 147.136 209.73 147.239 209.718C147.341 209.706 147.439 209.669 147.526 209.611Z" fill="#263238"/>
<path d="M171.595 233.887C163.117 231.878 144.762 231.157 144.762 231.157C140.34 231.304 128.032 231.857 119.554 233.894C117.949 234.277 116.552 235.31 115.667 236.768C114.782 238.227 114.479 239.993 114.825 241.685L122.677 280.297C123.063 282.169 124.046 283.846 125.464 285.051C126.881 286.255 128.647 286.914 130.47 286.919H160.739C162.562 286.914 164.328 286.255 165.746 285.051C167.163 283.846 168.146 282.169 168.532 280.297L176.377 241.685C176.722 239.985 176.412 238.21 175.516 236.749C174.62 235.288 173.211 234.259 171.595 233.887Z" fill="white" stroke="#2F2E41" stroke-linecap="round" stroke-linejoin="round"/>
<path d="M167.732 233.145C158.535 231.703 144.782 231.157 144.782 231.157C138.048 231.359 131.33 231.944 124.655 232.907L133.553 286.919H157.736L167.732 233.145Z" fill="#3F3D56" stroke="#2F2E41" stroke-linecap="round" stroke-linejoin="round"/>
<path d="M152.721 242.896H137.989C134.98 242.896 132.541 245.459 132.541 248.622V256.182C132.541 259.344 134.98 261.908 137.989 261.908H152.721C155.73 261.908 158.169 259.344 158.169 256.182V248.622C158.169 245.459 155.73 242.896 152.721 242.896Z" fill="white" stroke="#2F2E41" stroke-linecap="round" stroke-linejoin="round"/>
<path d="M141.052 250.729H136.903V255.09H141.052V250.729Z" fill="white" stroke="#2F2E41" stroke-linecap="round" stroke-linejoin="round"/>
<path d="M147.426 250.729H143.277V255.09H147.426V250.729Z" fill="white" stroke="#2F2E41" stroke-linecap="round" stroke-linejoin="round"/>
<path d="M153.806 250.729H149.657V255.09H153.806V250.729Z" fill="white" stroke="#2F2E41" stroke-linecap="round" stroke-linejoin="round"/>
<path d="M51.322 275.492H125.141C126.025 275.492 126.872 275.861 127.496 276.517C128.121 277.174 128.471 278.064 128.471 278.992V322.581H47.992V278.992C47.992 278.064 48.3428 277.174 48.9673 276.517C49.5918 275.861 50.4388 275.492 51.322 275.492Z" fill="white" stroke="#263238" stroke-linecap="round" stroke-linejoin="round"/>
<path d="M128.471 291.158C118.362 293.853 107.985 300.713 88.6513 310.373C70.0033 319.697 54.7385 319.536 47.992 318.815V322.581H128.471V291.158Z" fill="#263238" stroke="#263238" stroke-linecap="round" stroke-linejoin="round"/>
<path d="M128.471 319.97H47.992V322.588H128.471V319.97Z" fill="white" stroke="#263238" stroke-linecap="round" stroke-linejoin="round"/>
<path d="M92.3809 299.04C92.3809 299.902 92.1375 300.746 91.6816 301.463C91.2257 302.18 90.5777 302.739 89.8195 303.069C89.0613 303.399 88.2271 303.485 87.4222 303.317C86.6173 303.149 85.878 302.734 85.2978 302.124C84.7175 301.514 84.3223 300.737 84.1622 299.891C84.0021 299.045 84.0843 298.168 84.3983 297.371C84.7124 296.574 85.2442 295.893 85.9265 295.414C86.6088 294.935 87.411 294.679 88.2317 294.679C89.3321 294.679 90.3875 295.138 91.1656 295.956C91.9437 296.774 92.3809 297.883 92.3809 299.04V299.04Z" fill="white" stroke="#263238" stroke-linecap="round" stroke-linejoin="round"/>
</svg>
