<svg width="122" height="137" viewBox="0 0 122 137" fill="none" xmlns="http://www.w3.org/2000/svg">
<ellipse cx="60.5171" cy="59.5" rx="60.5171" ry="59.5" fill="#4D73F2"/>
<path d="M44.2845 127C49.275 129.923 55.048 131.563 60.9869 131.744C60.8809 131.972 60.7617 132.195 60.63 132.411C59.9388 133.567 58.9618 134.563 57.7755 135.321C56.3709 136.217 54.7219 136.746 53.0082 136.85C51.2945 136.955 49.582 136.631 48.0576 135.914C46.5332 135.197 45.2553 134.114 44.3635 132.784C43.4716 131.454 42.9999 129.928 43 128.372V127H44.2845Z" fill="#3F3D56"/>
<path d="M78.1606 127.532V128.502C78.1614 130.39 77.4678 132.225 76.1894 133.716C74.911 135.208 73.1207 136.27 71.1014 136.737C69.082 137.203 66.9487 137.047 65.0385 136.292C63.1283 135.537 61.55 134.227 60.5531 132.569C60.4157 132.347 60.2915 132.119 60.1812 131.885C60.4554 131.892 60.7259 131.895 61 131.895C67.0546 131.901 72.9934 130.392 78.1606 127.532V127.532Z" fill="#3F3D56"/>
<path d="M90.7954 24.9657C90.5137 24.9283 90.2282 24.9045 89.9428 24.8875C93.1864 31.6609 93.4112 39.3089 90.57 46.2291C90.8556 46.1985 91.1373 46.1576 91.419 46.11C94.1695 45.6271 96.6417 44.2754 98.3955 42.2955C100.149 40.3157 101.071 37.8362 100.996 35.2984C100.921 32.7607 99.8547 30.3293 97.9868 28.4371C96.1189 26.545 93.5705 25.3149 90.7954 24.9657V24.9657Z" fill="#3F3D56"/>
<path d="M32.0572 24.8875C31.7719 24.9045 31.4863 24.9283 31.2047 24.9657C28.4295 25.3149 25.8812 26.545 24.0133 28.4371C22.1453 30.3293 21.0791 32.7606 21.0042 35.2984C20.9294 37.8362 21.8509 40.3157 23.6046 42.2956C25.3583 44.2754 27.8305 45.6271 30.5811 46.11C30.8628 46.1576 31.1445 46.1985 31.43 46.2291C28.5889 39.3089 28.8137 31.6609 32.0572 24.8875V24.8875Z" fill="#3F3D56"/>
<path d="M93.1 36.265C93.1 52.1062 78.9102 65.03 61.3 65.03C43.6898 65.03 29.5 52.1062 29.5 36.265C29.5 20.4238 43.6898 7.5 61.3 7.5C78.9102 7.5 93.1 20.4238 93.1 36.265Z" fill="#E5E5E5" stroke="#3F3D56"/>
<path d="M95.09 101.63C95.09 118.225 80.2307 131.76 61.795 131.76C43.3593 131.76 28.5 118.225 28.5 101.63C28.5 85.0348 43.3593 71.5 61.795 71.5C80.2307 71.5 95.09 85.0348 95.09 101.63Z" fill="#E5E5E5" stroke="#3F3D56"/>
<path d="M77.5259 29.6281H44.4742C42.731 29.6281 41.0592 30.2555 39.8266 31.3724C38.5939 32.4893 37.9014 34.0042 37.9014 35.5837C37.9014 37.1632 38.5939 38.6781 39.8266 39.795C41.0592 40.9119 42.731 41.5393 44.4742 41.5393H77.5259C79.2691 41.5393 80.9409 40.9119 82.1735 39.795C83.4062 38.6781 84.0987 37.1632 84.0987 35.5837C84.0987 34.0042 83.4062 32.4893 82.1735 31.3724C80.9409 30.2555 79.2691 29.6281 77.5259 29.6281V29.6281Z" fill="#3F3D56"/>
<path d="M84.7246 94.4028H69.9515C68.9222 94.4028 67.935 94.0323 67.2071 93.3728C66.4793 92.7133 66.0704 91.8188 66.0704 90.8861C66.0704 89.9534 66.4793 89.0589 67.2071 88.3994C67.935 87.7399 68.9222 87.3694 69.9515 87.3694H84.7246C85.7539 87.3694 86.7411 87.7399 87.469 88.3994C88.1968 89.0589 88.6057 89.9534 88.6057 90.8861C88.6057 91.8188 88.1968 92.7133 87.469 93.3728C86.7411 94.0323 85.7539 94.4028 84.7246 94.4028V94.4028Z" fill="#3F3D56"/>
<path d="M70.9364 92.671C72.0243 92.671 72.9062 91.872 72.9062 90.8862C72.9062 89.9005 72.0243 89.1014 70.9364 89.1014C69.8486 89.1014 68.9667 89.9005 68.9667 90.8862C68.9667 91.872 69.8486 92.671 70.9364 92.671Z" fill="#F2F2F2"/>
<path d="M77.338 92.671C78.4259 92.671 79.3078 91.872 79.3078 90.8862C79.3078 89.9005 78.4259 89.1014 77.338 89.1014C76.2502 89.1014 75.3683 89.9005 75.3683 90.8862C75.3683 91.872 76.2502 92.671 77.338 92.671Z" fill="#F2F2F2"/>
<path d="M83.7397 92.671C84.8276 92.671 85.7095 91.872 85.7095 90.8862C85.7095 89.9005 84.8276 89.1014 83.7397 89.1014C82.6519 89.1014 81.77 89.9005 81.77 90.8862C81.77 91.872 82.6519 92.671 83.7397 92.671Z" fill="#4D73F2"/>
</svg>
