<svg width="80" height="130" viewBox="0 0 80 130" fill="none" xmlns="http://www.w3.org/2000/svg">
<path d="M23.2845 120C28.275 122.923 34.048 124.563 39.9869 124.744C39.8809 124.972 39.7617 125.195 39.63 125.411C38.9388 126.567 37.9618 127.563 36.7755 128.321C35.3709 129.217 33.7219 129.746 32.0082 129.85C30.2945 129.955 28.582 129.631 27.0576 128.914C25.5332 128.197 24.2553 127.114 23.3635 125.784C22.4716 124.454 21.9999 122.928 22 121.372V120H23.2845Z" fill="#3F3D56"/>
<path d="M57.1606 120.532V121.502C57.1614 123.39 56.4678 125.225 55.1894 126.716C53.911 128.208 52.1207 129.27 50.1014 129.737C48.082 130.203 45.9487 130.047 44.0385 129.292C42.1282 128.537 40.55 127.227 39.5531 125.569C39.4157 125.347 39.2915 125.119 39.1812 124.885C39.4554 124.892 39.7259 124.895 40 124.895C46.0546 124.901 51.9934 123.392 57.1606 120.532V120.532Z" fill="#3F3D56"/>
<path d="M69.7954 17.9657C69.5137 17.9283 69.2282 17.9045 68.9428 17.8875C72.1864 24.6609 72.4112 32.3089 69.57 39.2291C69.8556 39.1985 70.1373 39.1576 70.419 39.11C73.1695 38.6271 75.6417 37.2754 77.3955 35.2955C79.1492 33.3157 80.0706 30.8362 79.9958 28.2984C79.921 25.7607 78.8547 23.3293 76.9868 21.4371C75.1189 19.545 72.5705 18.3149 69.7954 17.9657V17.9657Z" fill="#3F3D56"/>
<path d="M11.0572 17.8875C10.7719 17.9045 10.4863 17.9283 10.2047 17.9657C7.42954 18.3149 4.88119 19.545 3.01327 21.4371C1.14535 23.3293 0.0790621 25.7606 0.00422474 28.2984C-0.0706126 30.8362 0.850866 33.3157 2.60461 35.2956C4.35835 37.2754 6.83055 38.6271 9.58113 39.11C9.86282 39.1576 10.1445 39.1985 10.43 39.2291C7.5889 32.3089 7.81367 24.6609 11.0572 17.8875V17.8875Z" fill="#3F3D56"/>
<path d="M72.1 29.265C72.1 45.1062 57.9102 58.03 40.3 58.03C22.6898 58.03 8.5 45.1062 8.5 29.265C8.5 13.4238 22.6898 0.5 40.3 0.5C57.9102 0.5 72.1 13.4238 72.1 29.265Z" fill="#E5E5E5" stroke="#3F3D56"/>
<path d="M74.09 94.63C74.09 111.225 59.2307 124.76 40.795 124.76C22.3593 124.76 7.5 111.225 7.5 94.63C7.5 78.0348 22.3593 64.5 40.795 64.5C59.2307 64.5 74.09 78.0348 74.09 94.63Z" fill="#E5E5E5" stroke="#3F3D56"/>
<path d="M56.5259 22.6281H23.4742C21.731 22.6281 20.0592 23.2555 18.8266 24.3724C17.5939 25.4893 16.9015 27.0042 16.9015 28.5837C16.9015 30.1632 17.5939 31.6781 18.8266 32.795C20.0592 33.9119 21.731 34.5393 23.4742 34.5393H56.5259C58.2691 34.5393 59.9409 33.9119 61.1735 32.795C62.4062 31.6781 63.0987 30.1632 63.0987 28.5837C63.0987 27.0042 62.4062 25.4893 61.1735 24.3724C59.9409 23.2555 58.2691 22.6281 56.5259 22.6281V22.6281Z" fill="#3F3D56"/>
<path d="M63.7246 87.4028H48.9515C47.9222 87.4028 46.935 87.0323 46.2071 86.3728C45.4793 85.7133 45.0704 84.8188 45.0704 83.8861C45.0704 82.9534 45.4793 82.0589 46.2071 81.3994C46.935 80.7399 47.9222 80.3694 48.9515 80.3694H63.7246C64.7539 80.3694 65.7411 80.7399 66.469 81.3994C67.1968 82.0589 67.6057 82.9534 67.6057 83.8861C67.6057 84.8188 67.1968 85.7133 66.469 86.3728C65.7411 87.0323 64.7539 87.4028 63.7246 87.4028V87.4028Z" fill="#3F3D56"/>
<path d="M49.9365 85.671C51.0243 85.671 51.9062 84.872 51.9062 83.8862C51.9062 82.9005 51.0243 82.1014 49.9365 82.1014C48.8486 82.1014 47.9667 82.9005 47.9667 83.8862C47.9667 84.872 48.8486 85.671 49.9365 85.671Z" fill="#F2F2F2"/>
<path d="M56.338 85.671C57.4259 85.671 58.3078 84.872 58.3078 83.8862C58.3078 82.9005 57.4259 82.1014 56.338 82.1014C55.2502 82.1014 54.3683 82.9005 54.3683 83.8862C54.3683 84.872 55.2502 85.671 56.338 85.671Z" fill="#F2F2F2"/>
<path d="M62.7397 85.671C63.8276 85.671 64.7095 84.872 64.7095 83.8862C64.7095 82.9005 63.8276 82.1014 62.7397 82.1014C61.6519 82.1014 60.77 82.9005 60.77 83.8862C60.77 84.872 61.6519 85.671 62.7397 85.671Z" fill="#4D73F2"/>
</svg>
